<svg width="59" height="41" viewBox="0 0 59 41" fill="none" xmlns="http://www.w3.org/2000/svg">
<path d="M32.0833 11.6667H2.91667C1.3125 11.6667 0 12.9792 0 14.5833C0 16.1875 1.3125 17.5 2.91667 17.5H32.0833C33.6875 17.5 35 16.1875 35 14.5833C35 12.9792 33.6875 11.6667 32.0833 11.6667ZM32.0833 0H2.91667C1.3125 0 0 1.3125 0 2.91667C0 4.52083 1.3125 5.83333 2.91667 5.83333H32.0833C33.6875 5.83333 35 4.52083 35 2.91667C35 1.3125 33.6875 0 32.0833 0ZM46.6667 23.3333V14.5833C46.6667 12.9792 45.3542 11.6667 43.75 11.6667C42.1458 11.6667 40.8333 12.9792 40.8333 14.5833V23.3333H32.0833C30.4792 23.3333 29.1667 24.6458 29.1667 26.25C29.1667 27.8542 30.4792 29.1667 32.0833 29.1667H40.8333V37.9167C40.8333 39.5208 42.1458 40.8333 43.75 40.8333C45.3542 40.8333 46.6667 39.5208 46.6667 37.9167V29.1667H55.4167C57.0208 29.1667 58.3333 27.8542 58.3333 26.25C58.3333 24.6458 57.0208 23.3333 55.4167 23.3333H46.6667ZM2.91667 29.1667H20.4167C22.0208 29.1667 23.3333 27.8542 23.3333 26.25C23.3333 24.6458 22.0208 23.3333 20.4167 23.3333H2.91667C1.3125 23.3333 0 24.6458 0 26.25C0 27.8542 1.3125 29.1667 2.91667 29.1667Z" fill="white"/>
</svg>
