<svg width="90" height="90" viewBox="0 0 90 90" fill="none" xmlns="http://www.w3.org/2000/svg">
<g clip-path="url(#clip0_7_240)">
<path d="M78.825 18.75H71.25V11.175C71.25 9.15 69.6 7.5 67.575 7.5H67.4625C65.4 7.5 63.75 9.15 63.75 11.175V18.75H56.2125C54.1875 18.75 52.5375 20.4 52.5 22.425V22.5375C52.5 24.6 54.15 26.25 56.2125 26.25H63.75V33.7875C63.75 35.8125 65.4 37.5 67.4625 37.4625H67.575C69.6 37.4625 71.25 35.8125 71.25 33.7875V26.25H78.825C80.85 26.25 82.5 24.6 82.5 22.575V22.425C82.5 20.4 80.85 18.75 78.825 18.75ZM60 33.7875V30H56.2125C54.225 30 52.35 29.2125 50.925 27.825C49.5375 26.4 48.75 24.525 48.75 22.425C48.75 21.075 49.125 19.8375 49.7625 18.75H18.75C14.625 18.75 11.25 22.125 11.25 26.25V71.25C11.25 75.375 14.625 78.75 18.75 78.75H63.75C67.875 78.75 71.25 75.375 71.25 71.25V40.2C70.125 40.8375 68.85 41.25 67.425 41.25C63.3375 41.2125 60 37.875 60 33.7875ZM59.85 71.25H22.5C20.9625 71.25 20.0625 69.4875 21 68.25L28.425 58.3875C29.2125 57.3375 30.75 57.4125 31.5 58.4625L37.5 67.5L47.2875 54.45C48.0375 53.475 49.5 53.4375 50.25 54.4125L61.3125 68.2125C62.2875 69.45 61.425 71.25 59.85 71.25Z" fill="white"/>
</g>
<defs>
<clipPath id="clip0_7_240">
<rect width="90" height="90" fill="white"/>
</clipPath>
</defs>
</svg>
