<svg width="50" height="50" viewBox="0 0 50 50" fill="none" xmlns="http://www.w3.org/2000/svg">
<g clip-path="url(#clip0_6_901)">
<path d="M33.3332 33.3333H37.4998C38.6457 33.3333 39.5832 34.2708 39.5832 35.4166C39.5832 36.5625 38.6457 37.5 37.4998 37.5H33.3332C32.1873 37.5 31.2498 36.5625 31.2498 35.4166C31.2498 34.2708 32.1873 33.3333 33.3332 33.3333ZM33.3332 16.6666H43.7498C44.8957 16.6666 45.8332 17.6041 45.8332 18.75C45.8332 19.8958 44.8957 20.8333 43.7498 20.8333H33.3332C32.1873 20.8333 31.2498 19.8958 31.2498 18.75C31.2498 17.6041 32.1873 16.6666 33.3332 16.6666ZM33.3332 25H41.6665C42.8123 25 43.7498 25.9375 43.7498 27.0833C43.7498 28.2291 42.8123 29.1666 41.6665 29.1666H33.3332C32.1873 29.1666 31.2498 28.2291 31.2498 27.0833C31.2498 25.9375 32.1873 25 33.3332 25ZM6.24984 37.5C6.24984 39.7916 8.12484 41.6666 10.4165 41.6666H22.9165C25.2082 41.6666 27.0832 39.7916 27.0832 37.5V16.6666H6.24984V37.5ZM27.0832 10.4166H22.9165L21.4373 8.93748C21.0623 8.56248 20.5207 8.33331 19.979 8.33331H13.354C12.8123 8.33331 12.2707 8.56248 11.8957 8.93748L10.4165 10.4166H6.24984C5.104 10.4166 4.1665 11.3541 4.1665 12.5C4.1665 13.6458 5.104 14.5833 6.24984 14.5833H27.0832C28.229 14.5833 29.1665 13.6458 29.1665 12.5C29.1665 11.3541 28.229 10.4166 27.0832 10.4166Z" fill="white"/>
</g>
<defs>
<clipPath id="clip0_6_901">
<rect width="50" height="50" fill="white"/>
</clipPath>
</defs>
</svg>
