<svg width="100" height="100" viewBox="0 0 100 100" fill="none" xmlns="http://www.w3.org/2000/svg">
<g clip-path="url(#clip0_39_24)">
<path d="M57.3667 4.7777C56.3993 3.81013 55.2509 3.0426 53.9869 2.51894C52.7229 1.99528 51.3682 1.72575 50 1.72575C48.6318 1.72575 47.2771 1.99528 46.0131 2.51894C44.7491 3.0426 43.6006 3.81013 42.6333 4.7777L0 47.4152V87.4985C0 90.8137 1.31696 93.9932 3.66116 96.3374C6.00537 98.6816 9.18479 99.9985 12.5 99.9985H87.5C90.8152 99.9985 93.9946 98.6816 96.3388 96.3374C98.683 93.9932 100 90.8137 100 87.4985V47.4152L57.3667 4.7777ZM87.5 87.4985H66.6667V74.2402C66.6667 70.021 64.9906 65.9747 62.0072 62.9913C59.0238 60.0079 54.9775 58.3319 50.7583 58.3319H49.2417C45.0225 58.3319 40.9762 60.0079 37.9928 62.9913C35.0094 65.9747 33.3333 70.021 33.3333 74.2402V87.4985H12.5V52.5902L50 15.0902L87.5 52.5902V87.4985Z" fill="black"/>
</g>
<defs>
<clipPath id="clip0_39_24">
<rect width="100" height="100" fill="white"/>
</clipPath>
</defs>
</svg>
