<svg width="60" height="40" viewBox="0 0 60 40" fill="none" xmlns="http://www.w3.org/2000/svg">
<path d="M26.6667 40H33.3333C35.1667 40 36.6667 38.5 36.6667 36.6667C36.6667 34.8333 35.1667 33.3333 33.3333 33.3333H26.6667C24.8333 33.3333 23.3333 34.8333 23.3333 36.6667C23.3333 38.5 24.8333 40 26.6667 40ZM0 3.33333C0 5.16667 1.5 6.66667 3.33333 6.66667H56.6667C58.5 6.66667 60 5.16667 60 3.33333C60 1.5 58.5 0 56.6667 0H3.33333C1.5 0 0 1.5 0 3.33333ZM13.3333 23.3333H46.6667C48.5 23.3333 50 21.8333 50 20C50 18.1667 48.5 16.6667 46.6667 16.6667H13.3333C11.5 16.6667 10 18.1667 10 20C10 21.8333 11.5 23.3333 13.3333 23.3333Z" fill="white"/>
</svg>
