<svg width="34" height="43" viewBox="0 0 34 43" fill="none" xmlns="http://www.w3.org/2000/svg">
<path d="M32.25 22.6126C28.9792 14.1126 17.3333 13.6543 20.1458 1.3001C20.3542 0.38343 19.375 -0.324903 18.5833 0.154264C11.0208 4.6126 5.58333 13.5501 10.1458 25.2584C10.5208 26.2168 9.39583 27.1126 8.58333 26.4876C4.8125 23.6334 4.41667 19.5293 4.75 16.5918C4.875 15.5084 3.45833 14.9876 2.85417 15.8834C1.4375 18.0501 0 21.5501 0 26.8209C0.791667 38.4876 10.6458 42.0709 14.1875 42.5293C19.25 43.1751 24.7292 42.2376 28.6667 38.6334C33 34.6126 34.5833 28.1959 32.25 22.6126ZM12.9167 33.0918C15.9167 32.3626 17.4583 30.1959 17.875 28.2793C18.5625 25.3001 15.875 22.3834 17.6875 17.6751C18.375 21.5709 24.5 24.0084 24.5 28.2584C24.6667 33.5293 18.9583 38.0501 12.9167 33.0918Z" fill="#30C02D"/>
<path d="M32.25 22.6126C28.9792 14.1126 17.3333 13.6543 20.1458 1.3001C20.3542 0.38343 19.375 -0.324903 18.5833 0.154264C11.0208 4.6126 5.58333 13.5501 10.1458 25.2584C10.5208 26.2168 9.39583 27.1126 8.58333 26.4876C4.8125 23.6334 4.41667 19.5293 4.75 16.5918C4.875 15.5084 3.45833 14.9876 2.85417 15.8834C1.4375 18.0501 0 21.5501 0 26.8209C0.791667 38.4876 10.6458 42.0709 14.1875 42.5293C19.25 43.1751 24.7292 42.2376 28.6667 38.6334C33 34.6126 34.5833 28.1959 32.25 22.6126ZM12.9167 33.0918C15.9167 32.3626 17.4583 30.1959 17.875 28.2793C18.5625 25.3001 15.875 22.3834 17.6875 17.6751C18.375 21.5709 24.5 24.0084 24.5 28.2584C24.6667 33.5293 18.9583 38.0501 12.9167 33.0918Z" fill="#30C02D"/>
</svg>
