<svg width="90" height="90" viewBox="0 0 90 90" fill="none" xmlns="http://www.w3.org/2000/svg">
<g clip-path="url(#clip0_7_241)">
<path d="M82.125 18.75H67.5V7.5C67.5 5.4375 65.8125 3.75 63.75 3.75C61.6875 3.75 60 5.4375 60 7.5V18.75H45.375C43.1625 18.75 41.4375 20.6625 41.625 22.875L42.075 27.4125C55.875 30.6 67.5 40.3875 67.5 56.25L67.575 86.25H73.95C77.1 86.25 79.6875 83.8125 80.0625 80.7375L85.8375 22.875C86.0625 20.6625 84.3375 18.75 82.125 18.75ZM56.25 78.75H7.5C5.4375 78.75 3.75 80.4375 3.75 82.5C3.75 84.5625 5.4375 86.25 7.5 86.25H56.25C58.3125 86.25 60 84.5625 60 82.5C60 80.4375 58.3125 78.75 56.25 78.75ZM7.875 56.25H55.875C58.2 56.25 60.0375 54.15 59.5875 51.9C57.15 39.7875 44.5125 33.7125 31.875 33.7125C19.2375 33.7125 6.6375 39.7875 4.1625 51.9C3.7125 54.15 5.5875 56.25 7.875 56.25ZM56.25 63.75H7.5C5.4375 63.75 3.75 65.4375 3.75 67.5C3.75 69.5625 5.4375 71.25 7.5 71.25H56.25C58.3125 71.25 60 69.5625 60 67.5C60 65.4375 58.3125 63.75 56.25 63.75Z" fill="white"/>
</g>
<defs>
<clipPath id="clip0_7_241">
<rect width="90" height="90" fill="white"/>
</clipPath>
</defs>
</svg>
