<svg width="160" height="180" viewBox="0 0 160 180" fill="none" xmlns="http://www.w3.org/2000/svg">
<path d="M104.724 33.4884C115.779 33.4884 124.825 25.9535 124.825 16.7442C124.825 7.53488 115.779 0 104.724 0C93.6692 0 84.6241 7.53488 84.6241 16.7442C84.6241 25.9535 93.6692 33.4884 104.724 33.4884ZM72.8655 133.953L78.5941 113.023L99.6993 129.767V171.628C99.6993 176.233 104.222 180 109.749 180C115.277 180 119.8 176.233 119.8 171.628V124.409C119.8 119.805 117.589 115.451 113.568 112.27L98.6943 100.465L104.724 75.3488C115.478 85.7302 131.056 93.1814 148.543 95.5256C154.573 96.2791 160 92.2605 160 87.1535C160 83.0512 156.382 79.6186 151.457 78.9488C136.181 76.8558 123.518 69.3209 116.785 59.4419L106.734 46.0465C102.714 41.0233 96.6843 37.6744 89.6492 37.6744C86.6342 37.6744 84.6241 38.5116 81.6091 38.5116L41.6096 52.5767C34.1726 55.2558 29.3485 61.2837 29.3485 68.0651V87.907C29.3485 92.5116 33.8711 96.2791 39.3986 96.2791C44.9262 96.2791 49.4487 92.5116 49.4487 87.907V67.814L67.5389 61.9535L51.4588 129.767L12.0623 123.07C6.63525 122.149 1.30869 125.079 0.203172 129.6V129.935C-0.90234 134.456 2.6152 138.893 8.04226 139.814L49.3482 146.679C60.0014 148.437 70.4535 142.828 72.8655 133.953Z" fill="#30C02D"/>
</svg>
