<svg width="180" height="180" viewBox="0 0 180 180" fill="none" xmlns="http://www.w3.org/2000/svg">
<path d="M44.8836 63.7499C44.8836 60.7663 46.0689 57.9048 48.1787 55.795C50.2885 53.6852 53.1499 52.4999 56.1336 52.4999C59.1173 52.4999 61.9788 53.6852 64.0886 55.795C66.1984 57.9048 67.3836 60.7663 67.3836 63.7499C67.3836 66.7336 66.1984 69.5951 64.0886 71.7049C61.9788 73.8147 59.1173 74.9999 56.1336 74.9999C53.1499 74.9999 50.2885 73.8147 48.1787 71.7049C46.0689 69.5951 44.8836 66.7336 44.8836 63.7499ZM86.1336 59.9999C89.1173 59.9999 91.9788 58.8147 94.0886 56.7049C96.1984 54.5951 97.3836 51.7336 97.3836 48.7499C97.3836 45.7663 96.1984 42.9048 94.0886 40.795C91.9788 38.6852 89.1173 37.4999 86.1336 37.4999C83.1499 37.4999 80.2885 38.6852 78.1787 40.795C76.0689 42.9048 74.8836 45.7663 74.8836 48.7499C74.8836 51.7336 76.0689 54.5951 78.1787 56.7049C80.2885 58.8147 83.1499 59.9999 86.1336 59.9999ZM172.384 117.922V146.25C172.374 155.198 168.815 163.777 162.488 170.104C156.16 176.431 147.582 179.99 138.634 180H41.1336C32.1856 179.99 23.6069 176.431 17.2797 170.104C10.9525 163.777 7.39356 155.198 7.38364 146.25V117.922C5.13494 116.597 3.27101 114.708 1.97607 112.442C0.681129 110.175 0 107.61 0 105C0 102.39 0.681129 99.8247 1.97607 97.5583C3.27101 95.292 5.13494 93.4028 7.38364 92.0774V68.5199C7.40547 50.3527 14.6326 32.9359 27.4795 20.0905C40.3263 7.24497 57.7439 0.0197873 75.9111 -6.10352e-05L103.856 -6.10352e-05C122.023 0.0197873 139.441 7.24497 152.288 20.0905C165.135 32.9359 172.362 50.3527 172.384 68.5199V92.0774C174.632 93.4028 176.496 95.292 177.791 97.5583C179.086 99.8247 179.767 102.39 179.767 105C179.767 107.61 179.086 110.175 177.791 112.442C176.496 114.708 174.632 116.597 172.384 117.922ZM29.8836 68.5199V89.9999H149.884V68.5199C149.868 56.3182 145.013 44.621 136.385 35.9938C127.756 27.3666 116.058 22.5138 103.856 22.4999H75.9111C63.7094 22.5138 52.0114 27.3666 43.3828 35.9938C34.7542 44.621 29.8995 56.3182 29.8836 68.5199ZM149.884 146.25V120H127.384C103.909 120 103.519 122.152 86.1336 137.25C82.2815 140.637 77.3278 142.504 72.1986 142.504C67.0695 142.504 62.1158 140.637 58.2636 137.25C46.1736 126.75 41.8236 121.14 29.8836 120.195V146.25C29.8836 149.234 31.0689 152.095 33.1787 154.205C35.2885 156.315 38.1499 157.5 41.1336 157.5H138.634C141.617 157.5 144.479 156.315 146.589 154.205C148.698 152.095 149.884 149.234 149.884 146.25Z" fill="#30C02D"/>
</svg>
