<svg width="144" height="144" viewBox="0 0 144 144" fill="none" xmlns="http://www.w3.org/2000/svg">
<path d="M136.144 93.3187L141.544 87.9187C144.469 84.9938 144.469 80.2687 141.544 77.3437L141.394 77.1937C138.469 74.2687 133.744 74.2687 130.819 77.1937L109.369 98.6437L45.0938 34.3688L66.5437 12.9187C69.4687 9.99375 69.4687 5.26875 66.5437 2.34375L66.3938 2.19375C63.4688 -0.73125 58.7437 -0.73125 55.8187 2.19375L50.4188 7.59375L45.0187 2.19375C42.0938 -0.73125 37.2938 -0.73125 34.3688 2.19375L23.6438 12.9187L18.2437 7.51875C15.3187 4.59375 10.4438 4.59375 7.51875 7.51875C4.59375 10.4438 4.59375 15.3187 7.51875 18.2437L12.9187 23.6438L2.19375 34.3688C-0.73125 37.2938 -0.73125 42.0187 2.19375 44.9437L7.59375 50.3438L2.19375 55.8187C-0.73125 58.7437 -0.73125 63.4688 2.19375 66.3938L2.34375 66.5437C5.26875 69.4687 9.99375 69.4687 12.9187 66.5437L34.3688 45.0938L98.6437 109.369L77.1937 130.819C74.2687 133.744 74.2687 138.469 77.1937 141.394L77.3437 141.544C80.2687 144.469 84.9938 144.469 87.9187 141.544L93.3187 136.144L98.7187 141.544C101.644 144.469 106.369 144.469 109.294 141.544L120.019 130.819L125.419 136.219C128.344 139.144 133.219 139.144 136.144 136.219C139.069 133.294 139.069 128.419 136.144 125.494L130.744 120.094L141.544 109.369C144.469 106.444 144.469 101.719 141.544 98.7937L136.144 93.3187Z" fill="#30C02D"/>
</svg>
